<svg id="logo" width="35vw" height="100%" viewBox="0 0 88 88" fill="none" xmlns="http://www.w3.org/2000/svg"><path d="M44.0337 22449e-9C67.6458-.00446414 87.9505 19.0116 87.9765 43.9679 88.0025 69.0732 67.3273 88.5757 42.9076 87.987 19.159 87.4145-.0822891 67.8987 264654e-9 43.9697.0855103 19.5653 19.7512-.0242053 44.0337 22449e-9zM86.4582 44.072C86.4672 20.7713 67.4215 1.52009 44.3235 1.48599 20.7105 1.45189 1.52482 20.4644 1.48803 43.924 1.45303 66.7537 19.8158 86.4643 43.9601 86.4777 68.2013 86.4903 86.4842 66.6675 86.4582 44.072z" fill="#bd2319"/><path d="M43.5016 37.2111C42.1296 37.2111 40.9451 37.2075 39.7624 37.212 38.3626 37.2174 37.9507 37.5961 37.8897 38.9681 37.7237 42.6929 37.5837 46.4185 37.4043 50.1433 37.2347 53.6869 37.1728 57.2447 36.7887 60.7667 36.5168 63.2649 36.7241 62.9078 33.5601 62.7983L34.0223 61.5142c-1.0059 1.8907-2.7351 1.3101-4.3251 1.3236C29.716 62.7059 29.6954 62.5802 29.7483 62.5138c1.7229-2.1527 2.1895-4.7253 2.3564-7.358C32.5085 48.7875 32.845 42.4147 33.2236 36.0455 33.2572 35.5087 33.3471 34.977 33.4919 34.459c.3904-1.3872 1.1316-1.9247 2.5763-1.9391C38.3797 32.4984 38.3788 32.4984 38.5322 30.1851 38.604 29.1128 38.6892 28.0405 38.7512 26.9682c.1175-2.0208 1.2661-3.1066 3.1603-3.5346C42.1197 23.387 42.3225 23.308 42.5253 23.238 42.5486 23.2299 42.5585 23.1851 42.615 23.0873 41.2681 22.6718 39.2079 23.614 38.8535 21.3052 39.8154 21.3689 40.7289 21.4972 41.6378 21.4721 42.5522 21.4469 43.1346 21.7583 43.4729 22.6197 43.5662 22.8566 43.8614 23.1061 44.1028 23.1563 44.2455 23.186 44.5604 22.8674 44.6367 22.6485 44.9633 21.7081 45.6166 21.446 46.557 21.473 47.4319 21.4981 48.3103 21.368 49.2642 21.3007 49.161 22.1065 48.7626 22.7597 47.8285 22.8952 47.0711 23.0056 46.2958 22.9876 45.3205 23.037 45.595 23.2129 45.6695 23.2856 45.7575 23.3134c2.9997.9467 3.4914 1.5577 3.7292 4.6948C49.5774 29.1873 49.685 30.369 49.6931 31.5499 49.6994 32.3844 50.0664 32.615 50.8184 32.528 51.1728 32.4876 51.5353 32.5199 51.8942 32.5217 53.6045 32.5289 54.483 33.1283 54.6777 34.8413 54.9954 37.6508 55.1408 40.4819 55.3274 43.3057 55.6199 47.7412 55.8559 52.1803 56.179 56.613 56.3405 58.8321 57.0386 60.8924 58.6358 62.8548 56.878 62.7606 55.1327 63.5134 54.0918 61.4756L54.5333 62.7624C54.4489 62.8037 54.4184 62.8306 54.3879 62.8306 51.5308 62.8261 51.5874 63.4955 51.2284 60.258 50.9206 57.4834 50.9332 54.6748 50.8067 51.8815 50.612 47.5842 50.4217 43.286 50.2243 38.9887 50.1615 37.6131 49.7469 37.2228 48.366 37.2156 47.1546 37.2102 45.9441 37.2147 44.6134 37.2147 44.6134 34.2876 44.5999 31.4638 44.6394 28.6408 44.643 28.4263 44.9938 28.176 45.2316 28.0136 46.1882 27.3603 46.6081 26.3266 46.2887 25.3162 45.9863 24.3623 44.9831 23.6373 44.0023 23.6624 43.0583 23.6867 42.1062 24.4072 41.8227 25.3117 41.505 26.3239 41.9304 27.3827 42.8708 28.0118 43.1112 28.1724 43.4711 28.4173 43.4738 28.6282 43.515 31.4494 43.5016 34.2742 43.5016 37.2111z" fill="#bd2319"/><path d="M43.269 58.5674C44.9873 58.7325 44.9891 58.7325 44.9891 57.2062 44.9909 51.719 44.9891 46.2319 44.9918 40.7439 44.9927 40.2782 45.008 39.8115 45.0403 39.3467 45.1049 38.401 45.5751 37.8069 46.5541 37.7037 47.5537 37.5979 48.4555 37.9029 48.6448 38.9376 48.8808 40.227 48.8925 41.564 48.9329 42.8822 49.0693 47.3589 49.1841 51.8366 49.2864 56.3142 49.3002 56.9945 49.251 57.6746 49.1392 58.3457 48.6565 61.2576 46.7452 62.8916 43.9949 62.7866 41.0472 62.6735 39.0937 60.8565 39.0336 57.8056 38.96 54.0108 39.1251 50.2106 39.1888 46.4132 39.2229 44.3708 39.2463 42.3267 39.3001 40.2844 39.3468 38.4988 40.088 37.6328 41.4689 37.6912 42.3645 37.7289 42.9845 38.1228 43.1236 39.0551 43.2079 39.6186 43.2618 40.1929 43.2636 40.7627 43.2734 46.2857 43.2699 51.8096 43.2699 57.3318L43.269 58.5674z" fill="#bd2319"/><path d="M30.6304 68.3769 30.17 69.2662C22.5006 65.658 13.741 55.1405 15.1785 41.1091c1.4393-14.0387 12.7527-25.0219 26.5464-25.9964 14.1436-.9987 26.8209 8.0562 30.3187 21.7745 3.4592 13.5729-3.3659 26.6675-14.0817 32.3861L57.4469 68.3123C66.342 62.8404 71.3877 55.0212 71.6954 44.5638 71.9341 36.4439 68.8617 29.5246 63.0174 23.8652c-11.3888-11.0299-29.958-9.9136-40.3158 2.3842-10.7077 12.7142-8.0705 32.9838 7.9288 42.1275zM10.4953 28.7413c-.69539-2.8006.3437-5.209 2.3887-7.2405C14.1008 20.2912 16.2579 20.3657 16.9902 21.2854 16.6967 22.5569 16.5191 23.6687 16.1682 24.7239 15.9699 25.3207 15.6011 26.1148 15.1094 26.305 14.2228 26.6487 13.9967 27.1952 13.9321 27.9938 13.9007 28.3823 13.8208 28.7655 13.7625 29.1522L13.435 29.2752C13.3183 28.9629 13.207 28.6488 13.0832 28.3393 12.9513 28.0082 12.8661 27.6358 12.6534 27.3666 12.4416 27.0992 12.0962 26.9368 11.8099 26.7277L13.1209 26.1624l-.9162-1.8413c-1.8691 2.2424-1.1997 5.1802 1.5488 6.5477C13.1891 31.1398 12.8275 31.4664 12.4847 31.4467 11.7803 31.4072 11.0283 31.3004 10.4047 30.9989 9.89592 30.7531 9.54238 30.1824 9.12064 29.7561l1.37466-1.0148zm4.789-7.3392c-1.7641.3948-2.4129 1.4321-3.0491 2.7449C14.1744 23.8168 13.2887 25.3449 13.6476 26.034 15.9205 25.0999 14.7693 23.1483 15.2843 21.4021zM14.2435 63.7503 13.26 62.1612l-2.1356 1.6591-1.18989-1.9014C11.7812 61.3697 13.2483 60.3252 14.6867 59.0322l1.2267 1.9257L13.5857 61.8776C13.9761 62.4977 14.2479 62.9338 14.6167 63.5206 15.2843 62.9714 15.8685 62.4914 16.5253 61.9494L17.839 64.042C16.6555 63.8912 13.4332 65.9586 13.1891 67.1225L11.8063 64.9168 14.2435 63.7503zM66.5323 68.1553C67.2905 67.2607 67.9321 66.4943 68.5844 65.7388 69.147 65.0873 69.8649 64.4493 70.6958 64.9043 71.2208 65.1914 71.4594 66.0017 71.8265 66.5769L71.5752 66.8452 74.7742 67.3504C74.0177 67.8502 73.4695 68.4559 72.835 68.5654 72.1531 68.6829 71.3922 68.332 70.6653 68.1858L70.5191 68.4972 72.5039 69.7283l-1.6026 1.9122C70.5469 70.4004 67.7113 68.0673 66.5323 68.1553zM68.2964 66.5562 70.1009 68.0332C70.729 67.319 70.3898 66.8685 69.9412 66.462 69.4701 66.0349 68.9667 65.8635 68.2964 66.5562zM64.9736 76.4044C65.1073 75.1948 62.7384 72.2336 61.4687 72.0595l3.7041-2.9961L66.0082 70.0441C64.9009 69.5695 64.227 70.1159 63.5684 70.9406l1.2993 1.5371L65.1746 72.4131 65.2419 70.9881C65.6663 71.5077 66.0863 72.0236 66.622 72.6823H65.2993L65.1199 73.0107C65.6807 73.4737 66.3205 74.3881 66.7853 74.3064 67.7993 74.1288 68.09 73.1372 67.9832 72.0631L68.7101 73.3732 64.9736 76.4044zM32.5901 74.9157 33.4749 75.3141C31.9252 76.5784 31.8068 78.6405 30.5209 80.2646 29.5276 78.4754 29.5051 76.5004 28.72 74.5478 28.1214 75.9198 27.164 76.9715 27.2654 78.5373L26.0693 78.0321C27.1407 77.5027 28.7056 74.1126 28.3476 73.0322 29.5509 73.3804 30.5622 73.7617 30.7129 75.2217 30.7946 76.0158 31.1006 76.7857 31.306 77.5673L31.6013 77.6175 32.5901 74.9157zm13.1987 3.4601L46.5327 82.3787 45.8032 82.464C45.927 80.5545 45.6794 78.7733 45.0261 77.0253 46.1047 76.6215 47.151 76.6448 48.0259 77.7737 48.4718 78.3498 49.1062 78.7787 49.6554 79.274L49.9273 79.1618 49.3449 76.3945l.9602-.1678C49.5657 78.1174 50.7124 79.8887 50.5016 81.8179 49.3557 81.7784 48.9115 80.7375 48.173 80.1722 47.4184 79.5944 46.7526 78.9016 46.0482 78.2582L45.7888 78.3758zM74.7392 64.7329C75.4319 64.3327 76.1785 64.0007 76.7851 63.4982 76.9959 63.3232 76.864 62.7319 76.8883 62.3299 76.4979 62.3281 76.0708 62.2231 75.7289 62.3496 75.3072 62.5066 74.9599 62.8575 74.5777 63.1222 73.587 63.8086 72.7875 63.8284 72.1558 63.1868 71.5617 62.5829 71.5501 61.463 72.1621 60.6169 72.5174 60.1269 72.9176 59.6693 73.3286 59.1587L74.2447 59.6738C73.6704 60.0067 73.0235 60.2723 72.5389 60.7156 72.3308 60.9067 72.4591 61.4666 72.4339 61.8579 72.7893 61.8336 73.1805 61.8947 73.4874 61.7619 73.8706 61.595 74.1801 61.2629 74.5283 61.0117 75.3269 60.432 76.1525 60.2543 76.9789 60.9372 77.651 61.4909 77.7533 62.5784 77.2221 63.4946 77.0453 63.8015 76.7824 64.0563 76.5733 64.3452 76.3436 64.6629 76.13 64.994 75.8734 65.3736L74.7392 64.7329zM5.70453 42.8454H6.79837C6.47174 43.5372 6.05 44.2703 5.80054 45.0573 5.72965 45.2807 6.10294 45.7778 6.38829 45.9295 6.54622 46.0129 7.04603 45.7061 7.21472 45.4557 7.55122 44.9568 7.77286 44.3798 8.0268 43.828 8.39021 43.0392 8.9977 42.6911 9.84747 42.8499 10.7071 43.0096 11.1567 43.6135 11.1845 44.4372 11.2105 45.2314 11.084 46.03 11.0203 46.8789H9.92015C10.2315 46.3485 10.6685 45.7913 10.8776 45.1587 10.9619 44.9021 10.5501 44.4812 10.3634 44.1357 10.0871 44.3107 9.72543 44.4274 9.55404 44.6759 9.29472 45.0501 9.17896 45.5212 8.98155 45.9429 8.497 46.9794 7.73068 47.411 6.74363 47.1364 5.76016 46.8627 5.42008 46.0847 5.44789 45.1533 5.47122 44.4202 5.60672 43.6907 5.70453 42.8454zM20.6503 67.0282C20.1936 67.2535 19.7297 67.3863 19.3878 67.6689 18.6439 68.2836 17.9081 68.927 17.2836 69.6565 17.0494 69.9311 16.9408 70.6077 17.1176 70.8652 17.3491 71.2026 17.9234 71.4826 18.3442 71.4736 19.2478 71.4547 21.4759 69.0678 21.6159 68.0646L22.5123 69.0203C22.0403 69.2724 21.5701 69.4537 21.1851 69.7471 20.6746 70.1366 20.2394 70.6211 19.7584 71.0482 18.4295 72.2291 17.3114 72.1017 16.257 70.6561 15.558 69.6978 15.5858 68.9207 16.415 68.0638 16.9866 67.4724 17.638 66.9574 18.1989 66.3561 18.4851 66.0484 18.6493 65.6266 18.9158 65.178l1.7345 1.8502zM74.1882 26.1534l2.316 2.4308L76.8568 28.6201C76.2036 27.5398 76.8847 27.4267 77.5038 27.1979 78.1409 26.9619 78.743 26.6308 79.4124 26.3167 79.556 27.4213 78.533 27.2293 77.9731 27.6447L78.9485 28.3814 76.8892 29.0329C77.3728 29.2384 77.6555 29.4645 77.9265 29.4502 78.3913 29.425 78.8426 29.2231 79.3074 29.1424 80.316 28.9665 81.3291 28.8202 82.5001 28.848l-1.4644 1.1468L80.3098 29.6009 80.3501 29.8557l-2.473.3644C77.9543 30.7746 79.0221 31.7024 77.5236 32.3216L76.8308 31.0985 77.9184 31.1622C77.4832 30.518 77.2212 29.9437 76.7958 29.5426 76.0214 28.8113 75.169 28.1589 74.3138 27.52 73.5583 26.9556 73.5134 26.6496 74.1882 26.1534zM54.3206 15.0212C54.3547 14.0431 53.9976 13.4949 55.3364 13.5388 56.3046 13.5702 57.3141 12.366 58.2724 11.7343 57.5474 11.2569 56.9991 10.968 56.5576 10.5606 56.4284 10.4413 56.537 9.95043 56.6761 9.71084 56.7317 9.61483 57.2001 9.66149 57.4172 9.77006 58.87 10.496 59.4129 10.3219 60.1011 8.84403 60.1765 8.68341 60.1711 8.46625 60.2797 8.34332 60.487 8.11002 60.7499 7.92696 60.9904 7.72327 61.0335 8.10463 61.2309 8.56137 61.0864 8.84941 60.8486 9.32499 60.3937 9.6911 60.0258 10.1075 60.7302 10.6871 61.8635 9.7234 62.2251 11.1035 61.5108 11.1035 60.8414 11.0111 60.2133 11.1331 59.7171 11.2291 59.0988 11.4696 58.835 11.8528c-1.0822 1.5756-2.8203 2.0907-4.5144 3.1684zM38.4191 76.5103 40.6364 76.731C39.8163 78.1452 40.0191 79.7227 39.9859 81.2463 39.9805 81.5039 40.5323 81.9687 40.85 81.9893 41.2358 82.0144 41.8855 81.7695 42.0057 81.4725 42.5989 80.0152 42.6671 78.4817 42.4014 76.9212H43.1687C43.0044 78.12 42.8331 79.3054 42.6814 80.4935 42.4948 81.9534 41.7401 82.5681 40.2882 82.4182 38.7251 82.2567 38.1266 81.5137 38.2531 80.0008 38.3482 78.8657 38.3644 77.7234 38.4191 76.5103zM20.5974 74.494 19.9531 74.0256l5.445-3.3336C25.3873 73.0367 24.3428 74.9301 24.1652 77.089l-1.8135-1.3092C22.6164 75.2459 23.0848 74.7371 23.0004 74.3468 22.9188 73.9681 22.2655 73.4647 21.8716 73.4719 21.4831 73.48 21.1053 74.0588 20.5974 74.494zM13.7733 57.793 12.3061 58.2677C12.6453 57.8953 12.8831 57.7526 12.9235 57.5669 13.0312 57.0698 13.2313 56.4793 13.0563 56.071 12.9038 55.7148 12.2693 55.3254 11.8826 55.3586 11.0499 55.4312 10.1822 55.6475 9.4338 56.0172 8.07795 56.6884 8.05372 57.8029 9.28126 58.6786 9.45085 58.7998 9.6366 58.8976 9.73351 59.2063 9.3997 59.0466 9.02373 58.9425 8.74107 58.7199 7.78542 57.9653 7.46418 56.5125 7.9604 55.407c.49891-1.1118 1.96065-1.9086 3.1891-1.739C12.4192 53.843 13.3883 54.8632 13.5588 56.1993 13.6216 56.7027 13.6934 57.2061 13.7733 57.793zM76.7806 47.5124V45.4683l2.4721-1.1163L79.2707 44.0711 76.9448 43.128 76.7554 43.4071 76.8497 42.3384C78.5905 43.329 80.1213 44.7351 82.2812 43.6637v2.482C79.958 44.8033 78.5582 46.7972 76.7806 47.5124zm5.0402 3.364L81.2448 53.371C79.8019 52.0986 77.939 52.4306 76.3831 51.7298L76.0699 51.9891 76.5625 53.5899 75.5611 53.3091C75.9012 51.8007 76.1865 50.3362 76.5966 48.9077 76.6684 48.6591 77.2642 48.5604 77.703 48.6071l-1.3639 1.4546C78.3904 50.3273 79.9472 51.2318 81.8208 50.8764zM55.8774 74.8601 57.6443 73.9197l2.4748 2.3779C60.5112 74.904 60.1765 73.4073 59.3994 72.9963L60.4439 72.4346 60.9168 78.9555l-5.0394-4.0954zM80.185 56.7359 79.2733 59.1157C77.6716 58.1178 76.0143 57.3829 74.0608 57.1676L74.9491 54.8318C75.5459 55.8045 79.0517 57.1173 80.185 56.7359zM11.9239 51.4543C10.8148 50.8271 7.19229 51.5144 6.48789 52.453 6.3847 51.9272 6.29138 51.483 6.21152 51.0362 6.13794 50.6225 6.08051 50.207 6.00872 49.7476 7.16178 50.2223 10.6954 49.5233 11.4142 48.6403L11.9239 51.4543zM56.0291 80.5482 53.6449 81.2077C54.0209 80.1327 53.0123 76.6655 52.1284 75.8785L54.5324 75.1732C54.5324 77.1222 55.0905 78.8532 56.0291 80.5482z" fill="#bd2319"/><path d="M41.3155 68.7878C40.9099 68.2378 40.2495 67.5361 41.0822 67.1574 41.792 66.8344 42.7575 67.074 43.61 67.0641L43.5148 68.7107C44.2345 69.3837 44.3547 69.9023 43.732 70.4703 43.0725 71.0715 41.1118 71.0294 40.6344 70.3671 40.0691 69.5838 40.7116 69.2231 41.3155 68.7878zM42.3214 70.9836 43.2438 69.9373C42.8831 69.6448 42.5574 69.2598 42.1455 69.1055 41.9858 69.0463 41.3711 69.6044 41.4133 69.7193 41.5542 70.1096 41.8943 70.4273 42.3214 70.9836zM42.299 66.7025 41.5793 67.5172C41.8907 67.7703 42.1877 68.0494 42.5323 68.2468 42.5762 68.2719 43.0437 67.8178 43.0016 67.6806 42.9073 67.371 42.6184 67.1215 42.299 66.7025zm4.9281 2.4721C46.9695 69.2814 46.721 69.4375 46.4527 69.4851 45.7788 69.6035 45.1013 69.547 44.8626 68.7816 44.6311 68.0404 44.7899 67.3656 45.576 66.9708 46.3836 66.5652 47.56 66.7447 48.0409 67.3647 48.5928 68.0772 48.4815 69.4106 47.8094 70.15 47.1122 70.9172 46.0462 71.0814 44.8689 70.5116 45.5024 70.482 46.0552 70.5861 46.4787 70.3977 46.8735 70.2236 47.1319 69.739 47.4496 69.39L47.2271 69.1746zm-1.7373-1.2877C45.9385 68.3679 46.1718 68.8004 46.5065 68.9054 46.6851 68.9619 47.3006 68.4002 47.2621 68.2073 47.1822 67.8053 46.7999 67.4616 46.5424 67.0946L45.4898 67.8869zM50.3955 68.69C50.8496 67.9453 51.5719 67.9453 52.1417 68.3329 52.4881 68.568 52.8084 69.2957 52.6882 69.6475 52.5248 70.1222 51.99 70.6435 51.5037 70.7979 50.435 71.1361 49.596 70.7027 49.2649 69.8772 48.897 68.961 49.2496 67.7954 50.0743 67.205 50.8872 66.6235 51.8554 66.6163 52.524 67.187 50.6656 67.1134 50.0411 67.5496 50.4332 68.6524 50.3578 68.9601 50.1478 69.3182 50.2403 69.5631 50.3856 69.9499 50.7338 70.2586 50.9967 70.6004 51.2327 70.4129 51.6787 70.2074 51.6643 70.0405 51.6176 69.5781 51.461 69.1335 51.2076 68.7439 51.1205 68.6075 50.6764 68.7008 50.3955 68.69zM34.4779 15.267C34.197 14.7906 33.8623 14.3383 33.6434 13.8349 32.7739 11.8357 31.9448 9.81938 31.0887 7.81566 30.9218 7.42533 30.6715 7.07178 30.5054 6.68145 30.3942 6.41943 30.3646 6.12241 30.2982 5.84155 30.5952 5.77156 30.9424 5.57325 31.1757 5.66478 31.4521 5.77425 31.8299 6.14305 31.8173 6.38264c-.1417 2.97283 1.5856 5.25386 2.7772 7.73496C34.7408 14.4218 34.809 14.7645 34.9131 15.0894 34.7677 15.1477 34.6224 15.2078 34.4779 15.267zM71.9501 29.7202C72.2624 31.2457 72.6949 31.4673 73.7887 30.6642 73.8488 29.8028 72.0982 29.635 72.877 28.4002 73.7439 28.8184 73.7187 30.4156 75.1921 29.9293L74.7785 28.8579C75.7072 28.9548 76.0302 29.5102 76.1926 30.1411 76.2097 30.2057 75.5107 30.456 74.9741 30.6956 75.0118 30.8203 75.1562 31.1254 75.1796 31.4404 75.1966 31.6584 75.0459 31.8881 74.9705 32.1134 74.7677 32.0353 74.4141 31.9895 74.389 31.872 74.2356 31.1775 73.7618 31.3255 73.3015 31.3838 73.1247 31.4063 72.9354 31.4511 72.7694 31.4108 72.336 31.3058 71.7015 31.2807 71.5409 30.9998 71.3579 30.6777 71.5984 30.1141 71.6558 29.6547L71.9501 29.7202zM29.0832 16.9737C28.9558 16.709 28.7808 16.4551 28.7081 16.176 28.3501 14.8013 28.0531 13.4096 27.6591 12.0456 27.5371 11.6248 27.1189 11.2973 26.9458 10.8809 26.8336 10.6117 26.9179 10.2591 26.9135 9.94411 27.1818 10.0679 27.5936 10.1236 27.6905 10.3282 27.9911 10.9635 28.1823 11.6526 28.3994 12.3265 28.7485 13.4132 29.111 14.498 29.4107 15.599 29.5211 16.0064 29.4672 16.4569 29.4888 16.8885L29.0832 16.9737zm7.6793 50.2887L38.3956 66.7662C38.9044 68.0906 37.9371 69.5963 39.0659 70.77H36.8038C37.7747 70.1168 37.8321 67.9435 36.7625 67.2624zM58.9721 13.5029C59.5096 14.1768 60.1108 14.8121 60.5433 15.547 60.6752 15.7722 60.345 16.2693 60.2266 16.6417 59.865 16.5134 59.2835 16.4784 59.1821 16.2388 58.8483 15.4519 58.6877 14.5904 58.4597 13.7577L58.9721 13.5029zM30.8204 13.4966C30.1259 12.226 29.5094 11.1268 28.9333 10.006 28.8732 9.88848 29.0222 9.51429 29.1254 9.49096 29.3703 9.43623 29.7032 9.43623 29.9007 9.56544 30.5369 9.9809 31.1811 12.4934 30.8204 13.4966z" fill="#bd2319"/></svg>